<svg xmlns="http://www.w3.org/2000/svg" version="1.1" xmlns:xlink="http://www.w3.org/1999/xlink" xmlns:svgjs="http://svgjs.dev/svgjs" width="1000" height="1000" viewBox="0 0 1000 1000"><g transform="matrix(1,0,0,1,-0.14221556886212738,-0.14221556886229791)"><svg viewBox="0 0 334 334" data-background-color="#096a2e" preserveAspectRatio="xMidYMid meet" height="1000" width="1000" xmlns="http://www.w3.org/2000/svg" xmlns:xlink="http://www.w3.org/1999/xlink"><g id="tight-bounds" transform="matrix(1,0,0,1,0.04749999999998522,0.04750000000001364)"><svg viewBox="0 0 333.90454557049503 333.90454557049503" height="333.90454557049503" width="333.90454557049503"><g><svg></svg></g><g><svg viewBox="0 0 333.90454557049503 333.90454557049503" height="333.90454557049503" width="333.90454557049503"><g><path d="M0 166.952c0-92.205 74.747-166.952 166.952-166.952 92.205 0 166.952 74.747 166.953 166.952 0 92.205-74.747 166.952-166.953 166.953-92.205 0-166.952-74.747-166.952-166.953zM166.952 316.63c82.665 0 149.677-67.013 149.678-149.678 0-82.665-67.013-149.677-149.678-149.677-82.665 0-149.677 67.013-149.677 149.677 0 82.665 67.013 149.677 149.677 149.678z" data-fill-palette-color="tertiary" fill="#c9efc7" stroke="transparent"></path><ellipse rx="160.27418187383762" ry="160.27418187383762" cx="166.95227278524752" cy="166.95227278524752" fill="#c9efc7" stroke="transparent" stroke-width="0" fill-opacity="1" data-fill-palette-color="tertiary"></ellipse></g><g transform="matrix(1,0,0,1,88.26716375256649,71.17305217166896)"><svg viewBox="0 0 157.37021806536205 191.55844122715712" height="191.55844122715712" width="157.37021806536205"><g><svg viewBox="0 0 157.37021806536205 191.55844122715712" height="191.55844122715712" width="157.37021806536205"><g><svg viewBox="0 0 157.37021806536205 191.55844122715712" height="191.55844122715712" width="157.37021806536205"><g><svg viewBox="0 0 157.37021806536205 191.55844122715712" height="191.55844122715712" width="157.37021806536205"><g id="textblocktransform"><svg viewBox="0 0 157.37021806536205 191.55844122715712" height="191.55844122715712" width="157.37021806536205" id="textblock"><g><svg viewBox="0 0 157.37021806536205 191.55844122715712" height="191.55844122715712" width="157.37021806536205"><g transform="matrix(1,0,0,1,0,0)"><svg width="157.37021806536205" viewBox="1.75 -29.450000762939453 30.149999618530273 36.70000076293945" height="191.55844122715712" data-palette-color="#096a2e"><path d="M1.75 6.05L1.75 6.05 1.75-25.75Q1.75-26.8 4.55-27.9 7.35-29 10.6-29L10.6-29Q12.1-29 12.95-28.65 13.8-28.3 14-27.95L14-27.95Q14.2-27.6 14.75-24.95L14.75-24.95 15.15-24.95Q15.25-25.4 16.05-26.35 16.85-27.3 17.68-27.9 18.5-28.5 20.05-28.98 21.6-29.45 23.68-29.45 25.75-29.45 27.45-28.53 29.15-27.6 29.98-26.38 30.8-25.15 31.28-23.28 31.75-21.4 31.83-20.28 31.9-19.15 31.9-17.03 31.9-14.9 31.75-12.83 31.6-10.75 31.2-8.6 30.8-6.45 30.05-4.9 29.3-3.35 28.15-2.1L28.15-2.1Q25.85 0.4 21.4 0.4L21.4 0.4Q19.8 0.4 18.57-0.08 17.35-0.55 16.75-1.2L16.75-1.2Q15.5-2.55 15.3-3.6L15.3-3.6 15.25-4.1 14.85-4.1 15.55 0.4 15.55 6.05Q15.55 6.6 12.68 6.93 9.8 7.25 6.78 7.25 3.75 7.25 2.75 6.98 1.75 6.7 1.75 6.05ZM18.35-14.65Q18.35-18.9 17.9-20.6 17.45-22.3 16.55-22.3 15.65-22.3 15.25-21.3L15.25-21.3 15.25-8.2Q15.25-6.9 16.6-6.9L16.6-6.9Q18.35-6.9 18.35-14.65L18.35-14.65Z" opacity="1" transform="matrix(1,0,0,1,0,0)" fill="#096a2e" class="undefined-text-0" data-fill-palette-color="quaternary" id="text-0"></path></svg></g></svg></g></svg></g></svg></g><g></g></svg></g></svg></g></svg></g></svg></g><defs></defs></svg><rect width="333.90454557049503" height="333.90454557049503" fill="none" stroke="none" visibility="hidden"></rect></g></svg></g></svg>