<svg xmlns="http://www.w3.org/2000/svg" version="1.1" xmlns:xlink="http://www.w3.org/1999/xlink" xmlns:svgjs="http://svgjs.dev/svgjs" width="2000" height="2250" viewBox="0 0 2000 2250"><g transform="matrix(1,0,0,1,0,0)"><svg viewBox="0 0 320 360" data-background-color="#0c1d36" preserveAspectRatio="xMidYMid meet" height="2250" width="2000" xmlns="http://www.w3.org/2000/svg" xmlns:xlink="http://www.w3.org/1999/xlink"><g id="tight-bounds" transform="matrix(1,0,0,1,0,0)"><svg viewBox="0 0 320 360" height="360" width="320"><rect width="320" height="360" fill="url(#a5117ea8-e283-432c-a39d-ee366763a0d8)" mask="url(&quot;#6eb2c6b7-15aa-4364-b87f-adc8e1db5da7&quot;)" data-fill-palette-color="tertiary"></rect><rect width="320" height="360" fill="url(#270329c5-64b0-43dd-92de-519fdc40f213)" mask="url(&quot;#7c3a87ff-7910-46f4-bbfe-1f05411e266f&quot;)" data-fill-palette-color="primary"></rect><g><svg></svg></g><g><svg viewBox="0 0 320 360" height="360" width="320"><g><path d="M160 340c88.258 0 160-71.742 160-160 0-88.258-71.742-160-160-160-88.258 0-160 71.742-160 160 0 88.258 71.742 160 160 160zM165.161 329.368v-10.323c72.671-2.684 131.2-61.213 133.884-133.884h10.323c-2.684 78.452-65.755 141.523-144.207 144.207zM165.161 30.632c78.452 2.684 141.523 65.755 144.207 144.207h-10.323c-2.684-72.671-61.213-131.2-133.884-133.884zM289.032 180c0 71.123-57.91 129.032-129.032 129.032-71.123 0-129.032-57.91-129.032-129.032 0-71.123 57.91-129.032 129.032-129.032 71.123 0 129.032 57.91 129.032 129.032zM154.839 30.632v10.323c-72.671 2.684-131.2 61.213-133.884 133.884h-10.323c2.684-78.452 65.755-141.523 144.207-144.207zM20.955 185.161c2.684 72.671 61.213 131.2 133.884 133.884v10.323c-78.452-2.684-141.523-65.755-144.207-144.207z" fill="url(#a5117ea8-e283-432c-a39d-ee366763a0d8)" fill-rule="nonzero" stroke="none" stroke-width="1" stroke-linecap="butt" stroke-linejoin="miter" stroke-miterlimit="10" stroke-dasharray="" stroke-dashoffset="0" font-family="none" font-weight="none" font-size="none" text-anchor="none" style="mix-blend-mode: normal" data-fill-palette-color="tertiary"></path></g><g transform="matrix(1,0,0,1,72.98417483044462,90)"><svg viewBox="0 0 174.03165033911077 180" height="180" width="174.03165033911077"><g><svg viewBox="0 0 174.03165033911077 180" height="180" width="174.03165033911077"><g><svg viewBox="0 0 174.03165033911077 180" height="180" width="174.03165033911077"><g><svg viewBox="0 0 174.03165033911077 180" height="180" width="174.03165033911077"><g id="textblocktransform"><svg viewBox="0 0 174.03165033911077 180" height="180" width="174.03165033911077" id="textblock"><g><svg viewBox="0 0 174.03165033911077 180" height="180" width="174.03165033911077"><g transform="matrix(1,0,0,1,0,0)"><svg width="174.03165033911077" viewBox="2.81 -32.4 31.320000000000004 32.4" height="180" data-palette-color="url(#270329c5-64b0-43dd-92de-519fdc40f213)"></svg></g></svg></g></svg></g></svg></g><g></g></svg></g></svg></g></svg></g></svg></g><defs></defs><mask id="7c3a87ff-7910-46f4-bbfe-1f05411e266f"><g id="SvgjsG1681"><svg viewBox="0 0 320 360" height="360" width="320"><g><svg></svg></g><g><svg viewBox="0 0 320 360" height="360" width="320"><g></g><g transform="matrix(1,0,0,1,72.98417483044462,90)"><svg viewBox="0 0 174.03165033911077 180" height="180" width="174.03165033911077"><g><svg viewBox="0 0 174.03165033911077 180" height="180" width="174.03165033911077"><g><svg viewBox="0 0 174.03165033911077 180" height="180" width="174.03165033911077"><g><svg viewBox="0 0 174.03165033911077 180" height="180" width="174.03165033911077"><g id="SvgjsG1680"><svg viewBox="0 0 174.03165033911077 180" height="180" width="174.03165033911077" id="SvgjsSvg1679"><g><svg viewBox="0 0 174.03165033911077 180" height="180" width="174.03165033911077"><g transform="matrix(1,0,0,1,0,0)"><svg width="174.03165033911077" viewBox="2.81 -32.4 31.320000000000004 32.4" height="180" data-palette-color="url(#270329c5-64b0-43dd-92de-519fdc40f213)"><path d="M13.6-32.4L13.6-6.47 22.85-6.47 22.85 0 9.28 0 2.81-6.47 2.81-25.93 9.28-32.4 13.6-32.4ZM19.31-11.55L19.31-17.97 34.13-17.97 34.13 0 24.56 0 24.56-11.55 19.31-11.55ZM23.34-25.93L15.31-25.93 15.31-32.4 28.47-32.4 34.13-25.93 34.13-22.68 23.34-22.68 23.34-25.93Z" opacity="1" transform="matrix(1,0,0,1,0,0)" fill="white" class="undefined-text-0" id="SvgjsPath1678"></path></svg></g></svg></g></svg></g></svg></g><g></g></svg></g></svg></g></svg></g></svg></g><defs><mask></mask></defs></svg></g></mask><linearGradient x1="0" x2="1" y1="0.5" y2="0.5" id="270329c5-64b0-43dd-92de-519fdc40f213"><stop stop-color="#fff72e" offset="0"></stop><stop stop-color="#deae29" offset="1"></stop></linearGradient><mask id="6eb2c6b7-15aa-4364-b87f-adc8e1db5da7"><g id="SvgjsG1688"><svg viewBox="0 0 320 360" height="360" width="320"><g><svg></svg></g><g><svg viewBox="0 0 320 360" height="360" width="320"><g><path d="M160 340c88.258 0 160-71.742 160-160 0-88.258-71.742-160-160-160-88.258 0-160 71.742-160 160 0 88.258 71.742 160 160 160zM165.161 329.368v-10.323c72.671-2.684 131.2-61.213 133.884-133.884h10.323c-2.684 78.452-65.755 141.523-144.207 144.207zM165.161 30.632c78.452 2.684 141.523 65.755 144.207 144.207h-10.323c-2.684-72.671-61.213-131.2-133.884-133.884zM289.032 180c0 71.123-57.91 129.032-129.032 129.032-71.123 0-129.032-57.91-129.032-129.032 0-71.123 57.91-129.032 129.032-129.032 71.123 0 129.032 57.91 129.032 129.032zM154.839 30.632v10.323c-72.671 2.684-131.2 61.213-133.884 133.884h-10.323c2.684-78.452 65.755-141.523 144.207-144.207zM20.955 185.161c2.684 72.671 61.213 131.2 133.884 133.884v10.323c-78.452-2.684-141.523-65.755-144.207-144.207z" fill="white" fill-rule="nonzero" stroke="none" stroke-width="1" stroke-linecap="butt" stroke-linejoin="miter" stroke-miterlimit="10" stroke-dasharray="" stroke-dashoffset="0" font-family="none" font-weight="none" font-size="none" text-anchor="none" style="mix-blend-mode: normal"></path></g><g transform="matrix(1,0,0,1,72.98417483044462,90)"><svg viewBox="0 0 174.03165033911077 180" height="180" width="174.03165033911077"><g><svg viewBox="0 0 174.03165033911077 180" height="180" width="174.03165033911077"><g><svg viewBox="0 0 174.03165033911077 180" height="180" width="174.03165033911077"><g><svg viewBox="0 0 174.03165033911077 180" height="180" width="174.03165033911077"><g id="SvgjsG1687"><svg viewBox="0 0 174.03165033911077 180" height="180" width="174.03165033911077" id="SvgjsSvg1686"><g><svg viewBox="0 0 174.03165033911077 180" height="180" width="174.03165033911077"><g transform="matrix(1,0,0,1,0,0)"><svg width="174.03165033911077" viewBox="2.81 -32.4 31.320000000000004 32.4" height="180" data-palette-color="url(#270329c5-64b0-43dd-92de-519fdc40f213)"></svg></g></svg></g></svg></g></svg></g><g></g></svg></g></svg></g></svg></g></svg></g><defs><mask></mask></defs><mask><g id="SvgjsG1685"><svg viewBox="0 0 320 360" height="360" width="320"><g><svg></svg></g><g><svg viewBox="0 0 320 360" height="360" width="320"><g></g><g transform="matrix(1,0,0,1,72.98417483044462,90)"><svg viewBox="0 0 174.03165033911077 180" height="180" width="174.03165033911077"><g><svg viewBox="0 0 174.03165033911077 180" height="180" width="174.03165033911077"><g><svg viewBox="0 0 174.03165033911077 180" height="180" width="174.03165033911077"><g><svg viewBox="0 0 174.03165033911077 180" height="180" width="174.03165033911077"><g id="SvgjsG1684"><svg viewBox="0 0 174.03165033911077 180" height="180" width="174.03165033911077" id="SvgjsSvg1683"><g><svg viewBox="0 0 174.03165033911077 180" height="180" width="174.03165033911077"><g transform="matrix(1,0,0,1,0,0)"><svg width="174.03165033911077" viewBox="2.81 -32.4 31.320000000000004 32.4" height="180" data-palette-color="url(#270329c5-64b0-43dd-92de-519fdc40f213)"></svg></g></svg></g></svg></g></svg></g><g></g></svg></g></svg></g></svg></g></svg></g><defs><mask></mask></defs></svg></g></mask></svg></g></mask><linearGradient x1="0" x2="1" y1="0.5" y2="0.5" id="a5117ea8-e283-432c-a39d-ee366763a0d8"><stop stop-color="#fff72e" offset="0"></stop><stop stop-color="#deae29" offset="1"></stop></linearGradient><rect width="320" height="360" fill="url(#f6400b4d-bebd-40b7-8b91-032f54064dd9)" mask="url(&quot;#67143649-3031-4047-ab25-3d84c4a2b2c6&quot;)" data-fill-palette-color="quaternary"></rect><mask id="67143649-3031-4047-ab25-3d84c4a2b2c6"><g id="SvgjsG1701"><svg viewBox="0 0 320 360" height="360" width="320"><g><svg></svg></g><g><svg viewBox="0 0 320 360" height="360" width="320"><g><path d="M160 340c88.258 0 160-71.742 160-160 0-88.258-71.742-160-160-160-88.258 0-160 71.742-160 160 0 88.258 71.742 160 160 160zM165.161 329.368v-10.323c72.671-2.684 131.2-61.213 133.884-133.884h10.323c-2.684 78.452-65.755 141.523-144.207 144.207zM165.161 30.632c78.452 2.684 141.523 65.755 144.207 144.207h-10.323c-2.684-72.671-61.213-131.2-133.884-133.884zM289.032 180c0 71.123-57.91 129.032-129.032 129.032-71.123 0-129.032-57.91-129.032-129.032 0-71.123 57.91-129.032 129.032-129.032 71.123 0 129.032 57.91 129.032 129.032zM154.839 30.632v10.323c-72.671 2.684-131.2 61.213-133.884 133.884h-10.323c2.684-78.452 65.755-141.523 144.207-144.207zM20.955 185.161c2.684 72.671 61.213 131.2 133.884 133.884v10.323c-78.452-2.684-141.523-65.755-144.207-144.207z" fill="black" fill-rule="nonzero" stroke="none" stroke-width="1" stroke-linecap="butt" stroke-linejoin="miter" stroke-miterlimit="10" stroke-dasharray="" stroke-dashoffset="0" font-family="none" font-weight="none" font-size="none" text-anchor="none" style="mix-blend-mode: normal"></path></g><g transform="matrix(1,0,0,1,72.98417483044462,90)"><svg viewBox="0 0 174.03165033911077 180" height="180" width="174.03165033911077"><g><svg viewBox="0 0 174.03165033911077 180" height="180" width="174.03165033911077"><g><svg viewBox="0 0 174.03165033911077 180" height="180" width="174.03165033911077"><g><svg viewBox="0 0 174.03165033911077 180" height="180" width="174.03165033911077"><g id="SvgjsG1700"><svg viewBox="0 0 174.03165033911077 180" height="180" width="174.03165033911077" id="SvgjsSvg1699"><g><svg viewBox="0 0 174.03165033911077 180" height="180" width="174.03165033911077"><g transform="matrix(1,0,0,1,0,0)"><svg width="174.03165033911077" viewBox="2.81 -32.4 31.320000000000004 32.4" height="180" data-palette-color="url(#270329c5-64b0-43dd-92de-519fdc40f213)"></svg></g></svg></g></svg></g></svg></g><g></g></svg></g></svg></g></svg></g></svg></g><defs><mask></mask></defs><mask><g id="SvgjsG1698"><svg viewBox="0 0 320 360" height="360" width="320"><g><svg></svg></g><g><svg viewBox="0 0 320 360" height="360" width="320"><g></g><g transform="matrix(1,0,0,1,72.98417483044462,90)"><svg viewBox="0 0 174.03165033911077 180" height="180" width="174.03165033911077"><g><svg viewBox="0 0 174.03165033911077 180" height="180" width="174.03165033911077"><g><svg viewBox="0 0 174.03165033911077 180" height="180" width="174.03165033911077"><g><svg viewBox="0 0 174.03165033911077 180" height="180" width="174.03165033911077"><g id="SvgjsG1697"><svg viewBox="0 0 174.03165033911077 180" height="180" width="174.03165033911077" id="SvgjsSvg1696"><g><svg viewBox="0 0 174.03165033911077 180" height="180" width="174.03165033911077"><g transform="matrix(1,0,0,1,0,0)"><svg width="174.03165033911077" viewBox="2.81 -32.4 31.320000000000004 32.4" height="180" data-palette-color="url(#270329c5-64b0-43dd-92de-519fdc40f213)"></svg></g></svg></g></svg></g></svg></g><g></g></svg></g></svg></g></svg></g></svg></g><defs><mask></mask></defs></svg></g></mask><mask><g id="SvgjsG1694"><svg viewBox="0 0 320 360" height="360" width="320"><g><svg></svg></g><g><svg viewBox="0 0 320 360" height="360" width="320"><g></g><g transform="matrix(1,0,0,1,72.98417483044462,90)"><svg viewBox="0 0 174.03165033911077 180" height="180" width="174.03165033911077"><g><svg viewBox="0 0 174.03165033911077 180" height="180" width="174.03165033911077"><g><svg viewBox="0 0 174.03165033911077 180" height="180" width="174.03165033911077"><g><svg viewBox="0 0 174.03165033911077 180" height="180" width="174.03165033911077"><g id="SvgjsG1693"><svg viewBox="0 0 174.03165033911077 180" height="180" width="174.03165033911077" id="SvgjsSvg1692"><g><svg viewBox="0 0 174.03165033911077 180" height="180" width="174.03165033911077"><g transform="matrix(1,0,0,1,0,0)"><svg width="174.03165033911077" viewBox="2.81 -32.4 31.320000000000004 32.4" height="180" data-palette-color="url(#270329c5-64b0-43dd-92de-519fdc40f213)"></svg></g></svg></g></svg></g></svg></g><g></g></svg></g></svg></g></svg></g></svg></g><defs><mask></mask></defs><mask><g id="SvgjsG1691"><svg viewBox="0 0 320 360" height="360" width="320"><g><svg></svg></g><g><svg viewBox="0 0 320 360" height="360" width="320"><g></g><g transform="matrix(1,0,0,1,72.98417483044462,90)"><svg viewBox="0 0 174.03165033911077 180" height="180" width="174.03165033911077"><g><svg viewBox="0 0 174.03165033911077 180" height="180" width="174.03165033911077"><g><svg viewBox="0 0 174.03165033911077 180" height="180" width="174.03165033911077"><g><svg viewBox="0 0 174.03165033911077 180" height="180" width="174.03165033911077"><g id="SvgjsG1690"><svg viewBox="0 0 174.03165033911077 180" height="180" width="174.03165033911077" id="SvgjsSvg1689"><g><svg viewBox="0 0 174.03165033911077 180" height="180" width="174.03165033911077"><g transform="matrix(1,0,0,1,0,0)"><svg width="174.03165033911077" viewBox="2.81 -32.4 31.320000000000004 32.4" height="180" data-palette-color="url(#270329c5-64b0-43dd-92de-519fdc40f213)"></svg></g></svg></g></svg></g></svg></g><g></g></svg></g></svg></g></svg></g></svg></g><defs><mask></mask></defs></svg></g></mask></svg></g></mask></svg></g></mask><linearGradient x1="0.054" x2="0.941" y1="0.5" y2="0.5" id="f6400b4d-bebd-40b7-8b91-032f54064dd9"><stop stop-color="#8c8c8c" offset="0"></stop><stop stop-color="#e3e4e5" offset="0.498"></stop><stop stop-color="#8c8c8c" offset="1"></stop></linearGradient></svg><rect width="320" height="360" fill="none" stroke="none" visibility="hidden"></rect></g></svg></g></svg>